# xmcd
#
# Track frame offsets: 
#        150
#        20486
#        34301
#        59569
#        84035
#        109680
#        127721
#        148526
#        177282
#
# Disc length: 2584 seconds
#
# Revision: 0
# Processed by: cddbd v1.5.2PL0 Copyright (c) Steve Scherf et al.
# Submitted via: ExactAudioCopy v0.99pb5
#
DISCID=6d0a1609
DTITLE=Margie Joseph - Hear The Words, Feel The Feeling [Original Albu
DTITLE=m Series 5-Pk]
DYEAR=1976
DGENRE=Soul
TTITLE0=Hear The Words, Feel The Feeling
TTITLE1=Didn't I Tell You
TTITLE2=Why'd You Lie
TTITLE3=Prophecy
TTITLE4=All Cried Out
TTITLE5=Something To Fall Back On
TTITLE6=Don't Turn The Lights Off
TTITLE7=Feeling My Way
TTITLE8=I Get Carried Away
EXTD=
EXTT0=
EXTT1=
EXTT2=
EXTT3=
EXTT4=
EXTT5=
EXTT6=
EXTT7=
EXTT8=
PLAYORDER=
